<svg width="261px" height="94px" viewBox="0 0 261 94" version="1.1" xmlns="http://www.w3.org/2000/svg" xmlns:xlink="http://www.w3.org/1999/xlink">
    <!-- Generator: Sketch 45.1 (43504) - http://www.bohemiancoding.com/sketch -->
    <desc>Created with Sketch.</desc>
    <defs>
        <polygon id="path-1" points="0.8987 21 15.7187 21 15.7187 0.6172 0.8987 0.6172 0.8987 21"></polygon>
        <polygon id="path-3" points="15.118 20.9997 15.118 0.742916218 0.6021 0.742916218 0.6021 20.9997"></polygon>
        <polygon id="path-5" points="203.9859 0.637 0.1319 0.637 0.1319 58.7894 203.9859 58.7894 203.9859 0.637"></polygon>
    </defs>
    <g id="UI-Kit" stroke="none" stroke-width="1" fill="none" fill-rule="evenodd">
        <g id="Desktop-HD" transform="translate(-1057.000000, -67.000000)">
            <g id="Page-1" transform="translate(1057.000000, 66.000000)">
                <path d="M0,69.0505 L0.11,68.0875 C1.432,68.1695 2.754,68.2235 4.104,68.2235 C5.481,68.2235 6.803,68.1695 8.125,68.0875 L8.125,69.0505 C7.52,69.1055 6.941,69.0505 6.362,69.1605 C5.729,69.2705 5.839,70.0965 5.867,70.5655 L6.032,73.4855 L6.858,82.7955 L14.13,67.9215 L14.984,67.9215 C15.066,68.1415 15.149,68.3895 15.204,68.6365 L19.061,83.1535 L21.732,76.3775 L23.33,72.0805 L23.716,70.9515 C23.826,70.6205 24.019,70.2075 24.019,69.8765 C24.019,69.2155 23.247,69.1875 22.779,69.1335 L21.567,69.0505 L21.677,68.0875 C22.669,68.1695 23.66,68.2235 24.68,68.2235 C25.699,68.2235 26.69,68.1695 27.682,68.0875 L27.627,69.0505 C26.112,69.0505 26.195,69.1605 25.671,70.4005 L24.927,72.2455 L23.826,74.7525 L19.281,86.0175 L18.868,87.0365 L16.554,87.0365 C16.472,86.6515 16.389,86.2655 16.279,85.8805 L15.122,81.3895 L12.946,73.3745 L10.054,79.1035 L9.778,79.5995 L6.638,86.0455 L6.17,87.0365 L3.856,87.0365 L2.562,73.0715 L2.286,70.8405 C2.038,69.1875 1.956,69.1335 0.275,69.0505 L0,69.0505 Z" id="Fill-1" fill="#000000"></path>
                <path d="M28.399,80.8669 C28.702,80.7579 29.005,80.6749 29.336,80.6179 C30.3,80.3709 31.374,79.9299 32.063,79.1589 C32.641,78.4709 33.164,77.6449 33.164,76.7079 C33.164,75.9359 32.723,75.3029 31.897,75.3029 C29.969,75.3029 29.143,77.7549 28.785,79.2689 L28.399,80.8669 Z M34.899,84.5309 C32.889,85.7419 30.906,87.3669 28.427,87.3669 C26.14,87.3669 25.011,86.1559 25.011,83.9239 C25.011,82.9049 25.424,81.1159 25.7,80.1229 C26.251,78.1399 26.829,76.9829 28.592,75.7989 C29.032,75.4959 29.473,75.2749 29.941,75.0009 C30.327,74.7789 30.712,74.5859 31.126,74.3939 C31.704,74.1739 32.503,73.9809 33.136,73.9809 C34.596,73.9809 35.753,74.7789 35.753,76.2939 C35.753,78.3329 34.514,79.4899 32.751,80.2889 C31.897,80.6749 30.988,80.8939 30.134,81.2249 C29.556,81.4179 28.895,81.4459 28.289,81.5829 C28.206,82.1889 28.151,82.8229 28.151,83.4009 C28.151,84.7779 28.84,85.6049 30.272,85.6049 C31.566,85.6049 33.549,84.4749 34.624,83.7589 L34.899,84.5309 Z" id="Fill-3" fill="#000000"></path>
                <path d="M44.5069,75.8538 L44.6999,75.1378 C45.7749,74.9448 46.8209,74.5318 47.8679,74.2288 C47.8959,73.7328 47.9779,73.2098 48.0609,72.7138 L48.3359,70.8958 L48.3089,70.4278 C49.2169,70.2078 50.1269,69.9038 51.0079,69.6018 L51.6959,69.3808 L51.9719,69.7108 C51.6689,70.7858 51.3659,71.8328 51.1179,72.9068 L50.7599,74.4498 L51.9719,74.4498 C52.6329,74.4498 53.2669,74.4208 53.9279,74.3668 L54.4789,74.3388 L54.6159,74.4498 C54.5889,74.5038 54.5889,74.5858 54.5609,74.6428 L54.4239,75.1378 L54.2309,75.9918 C53.1839,75.9088 52.1369,75.8538 51.0639,75.8538 L50.4019,75.8538 C50.3749,76.1848 50.2919,76.5148 50.2089,76.8458 L50.1269,77.3128 L49.3829,80.7288 L49.2449,81.3078 L49.0799,82.1888 C48.9699,82.8228 48.7489,83.7588 48.7489,84.3378 C48.7489,84.9168 48.9149,85.1908 49.5209,85.1908 C50.0989,85.1908 51.7239,84.0618 52.1929,83.6768 C52.2749,83.6208 52.3579,83.5388 52.4409,83.4558 L52.7989,84.1718 C52.1099,84.7498 51.3939,85.2468 50.6769,85.7428 C50.0989,86.1278 49.4379,86.5968 48.7489,86.9268 C48.4189,87.0918 48.0609,87.2288 47.6749,87.2848 C47.3169,87.3678 46.9589,87.3678 46.5729,87.3128 C45.8299,87.0918 45.5269,86.3488 45.5269,85.6048 C45.5269,85.1358 45.6919,84.4188 45.8019,83.9238 L46.9589,78.5808 L47.3439,76.5978 L47.5099,75.8538 L44.5069,75.8538 Z" id="Fill-5" fill="#000000"></path>
                <path d="M64.4468,76.0188 C63.8678,75.7158 62.9878,75.4128 62.3258,75.4128 C61.6648,75.4128 61.0038,75.6608 60.5908,76.1848 C59.7638,77.4238 59.3788,78.9668 59.0208,80.3988 C58.7728,81.3628 58.3598,83.0978 58.3598,84.0618 C58.3598,84.3378 58.4148,84.6128 58.4978,84.8598 C58.5798,84.9708 58.6898,85.0818 58.8278,85.1358 C58.9378,85.1638 59.0758,85.1088 59.1858,85.0818 C61.5548,83.4838 63.8138,79.6268 64.3088,76.8458 L64.4468,76.0188 Z M67.5318,73.9538 L67.9728,74.2838 C67.9448,74.3938 67.8898,74.4768 67.8348,74.5598 L67.3938,76.1848 L65.8238,83.2078 C65.7138,83.7048 65.5488,84.2828 65.6588,84.7778 C65.6858,84.8888 65.7688,85.0538 65.8788,85.1088 C66.1828,85.1638 66.4578,84.9428 66.7058,84.8338 C67.1458,84.5028 67.6138,84.2278 68.0278,83.8418 L68.3308,84.6958 C67.6418,85.2468 66.9258,85.8518 66.1548,86.3488 C65.3838,86.8438 64.5568,87.3678 63.6198,87.3678 C63.4828,87.3678 63.3178,87.3388 63.1798,87.2848 C62.7948,86.9818 62.6838,86.4858 62.6838,86.0178 C62.6838,85.5498 62.7948,85.0538 62.8768,84.6128 L63.4008,82.4098 L63.5378,81.8038 L63.8408,80.6458 C62.6008,82.8778 59.5438,87.3678 56.7348,87.3678 C55.6598,87.3678 55.2748,86.1558 55.2748,85.2748 C55.2748,83.7588 55.4948,82.6018 55.8808,81.1978 C56.2118,80.0138 56.5698,78.7738 57.2028,77.7268 C57.3128,77.5338 57.4228,77.3408 57.5888,77.2038 C58.6348,76.3498 60.6178,74.6698 61.8578,74.2288 C62.5738,73.9538 62.7948,73.9808 63.5658,73.9808 C64.5568,73.9808 65.4108,74.3108 66.2928,74.6968 L67.5318,73.9538 Z" id="Fill-7" fill="#000000"></path>
                <path d="M72.8174,75.9919 L72.9004,75.4409 L73.0654,74.5589 L73.5054,72.2189 L73.7534,70.3179 C73.8094,70.0419 73.8634,69.7669 73.8634,69.5179 C73.8634,68.9949 73.4224,69.0509 73.0654,69.0229 L71.5224,68.9679 L71.7424,68.1409 C73.6434,68.0589 75.5444,67.5629 77.3074,66.9019 L77.5824,67.1499 C77.5544,67.3979 77.4994,67.6459 77.4444,67.8939 L75.9014,74.8349 L75.7644,75.5239 L74.8284,80.0129 L74.6354,80.6749 C75.2964,79.8479 76.0124,79.0489 76.7284,78.2499 L77.5824,77.3129 C78.3264,76.4879 79.2904,75.5509 80.3644,74.8899 C80.9154,74.5589 81.4664,74.2839 82.0724,74.1449 C82.6504,73.9809 83.2564,73.9809 83.8354,74.2839 L83.4214,76.1569 C83.0364,76.0469 82.6234,75.9089 82.2104,75.9089 C80.6394,75.9089 79.1254,76.9009 78.1604,78.0849 C78.1604,78.1669 78.2154,78.2219 78.2154,78.3049 L78.5194,79.1319 L79.9514,82.9049 C80.1714,83.4559 80.8874,85.1089 81.5764,85.1089 C82.1544,85.1089 83.1184,84.3659 83.5874,84.0899 L83.8624,84.8879 C82.4574,85.8519 81.0524,86.9539 79.3724,87.3669 C79.1524,87.3669 78.9324,87.2849 78.7114,87.0919 C78.5194,86.8979 78.3264,86.6239 78.1604,86.3479 C77.8584,85.7419 77.6094,85.0539 77.4724,84.6959 L75.9014,80.4259 C75.6544,80.7009 75.3794,80.9769 75.0484,81.3629 C74.8564,81.6929 74.6354,82.0519 74.4144,82.3809 C74.0844,83.6489 73.7814,84.9429 73.6714,86.0739 C73.6154,86.2099 73.6154,86.3759 73.6154,86.5409 C72.9004,86.4579 72.2114,86.6789 71.5224,86.8159 L70.5584,87.0369 L70.3384,86.7059 C70.6134,85.7699 70.8894,84.8599 71.1094,83.9239 L71.6884,81.4459 L72.8174,75.9919 Z" id="Fill-9" fill="#000000"></path>
                <path d="M88.8448,80.8669 C89.1478,80.7579 89.4508,80.6749 89.7818,80.6179 C90.7458,80.3709 91.8198,79.9299 92.5088,79.1589 C93.0868,78.4709 93.6098,77.6449 93.6098,76.7079 C93.6098,75.9359 93.1698,75.3029 92.3428,75.3029 C90.4148,75.3029 89.5888,77.7549 89.2308,79.2689 L88.8448,80.8669 Z M95.3448,84.5309 C93.3348,85.7419 91.3518,87.3669 88.8728,87.3669 C86.5868,87.3669 85.4568,86.1559 85.4568,83.9239 C85.4568,82.9049 85.8698,81.1159 86.1458,80.1229 C86.6968,78.1399 87.2748,76.9829 89.0378,75.7989 C89.4788,75.4959 89.9188,75.2749 90.3878,75.0009 C90.7728,74.7789 91.1588,74.5859 91.5718,74.3939 C92.1498,74.1739 92.9488,73.9809 93.5828,73.9809 C95.0418,73.9809 96.1988,74.7789 96.1988,76.2939 C96.1988,78.3329 94.9598,79.4899 93.1968,80.2889 C92.3428,80.6749 91.4338,80.8939 90.5798,81.2249 C90.0018,81.4179 89.3408,81.4459 88.7348,81.5829 C88.6518,82.1889 88.5968,82.8229 88.5968,83.4009 C88.5968,84.7779 89.2858,85.6049 90.7178,85.6049 C92.0118,85.6049 93.9958,84.4749 95.0698,83.7589 L95.3448,84.5309 Z" id="Fill-11" fill="#000000"></path>
                <path d="M109.0025,69.7942 C109.0025,68.7472 109.7465,67.7562 110.8755,67.7562 C111.7295,67.7562 112.3905,68.4442 112.3905,69.2982 C112.3905,70.4272 111.7015,71.3642 110.5175,71.3642 C109.5535,71.3642 109.0025,70.7572 109.0025,69.7942 L109.0025,69.7942 Z M104.4855,77.3132 C105.8355,76.4052 107.9835,74.5862 109.4985,74.1182 C109.6365,74.0632 109.8835,73.9812 110.1045,73.9812 C110.3245,73.9812 110.5725,73.9812 110.6825,74.1182 C110.9855,74.2562 111.1235,74.6962 111.1235,75.0012 C111.1235,75.6332 110.9855,76.1842 110.8205,76.8452 L110.0215,79.6832 L109.1945,82.9052 C109.0575,83.4562 108.8925,84.1452 108.8925,84.7232 C108.8925,84.9702 109.0295,85.1642 109.3055,85.1642 C109.4155,85.1642 109.9395,84.8602 110.0485,84.7772 L111.5365,83.8692 L111.8675,84.5852 C110.8485,85.2742 109.8835,85.9902 108.8375,86.5962 C108.4795,86.8162 107.9835,87.1202 107.4875,87.2562 C107.2395,87.3392 106.9645,87.3672 106.7165,87.3672 C106.4955,87.3672 106.2475,87.3132 106.0275,87.1742 C105.9175,87.0092 105.8355,86.8162 105.7525,86.6512 C105.5865,86.0172 105.6695,85.4112 105.8075,84.7502 L106.0005,83.8422 L107.2115,79.1312 L107.4325,78.1122 C107.5155,77.8102 107.5985,77.4512 107.5985,77.0932 C107.5985,76.9002 107.5705,76.6522 107.2945,76.6522 C106.8815,76.6522 105.2295,77.6992 104.8435,78.0022 L104.4855,77.3132 Z" id="Fill-13" fill="#000000"></path>
                <path d="M114.1187,75.8538 L114.3117,75.1378 C115.3857,74.9448 116.4327,74.5318 117.4787,74.2288 C117.5067,73.7328 117.5897,73.2098 117.6727,72.7138 L117.9477,70.8958 L117.9197,70.4278 C118.8287,70.2078 119.7377,69.9038 120.6187,69.6018 L121.3077,69.3808 L121.5827,69.7108 C121.2807,70.7858 120.9767,71.8328 120.7297,72.9068 L120.3717,74.4498 L121.5827,74.4498 C122.2437,74.4498 122.8777,74.4208 123.5387,74.3668 L124.0897,74.3388 L124.2277,74.4498 C124.2007,74.5038 124.2007,74.5858 124.1727,74.6428 L124.0347,75.1378 L123.8417,75.9918 C122.7957,75.9088 121.7487,75.8538 120.6747,75.8538 L120.0137,75.8538 C119.9857,76.1848 119.9037,76.5148 119.8207,76.8458 L119.7377,77.3128 L118.9937,80.7288 L118.8567,81.3078 L118.6917,82.1888 C118.5807,82.8228 118.3607,83.7588 118.3607,84.3378 C118.3607,84.9168 118.5257,85.1908 119.1317,85.1908 C119.7107,85.1908 121.3357,84.0618 121.8037,83.6768 C121.8867,83.6208 121.9697,83.5388 122.0517,83.4558 L122.4097,84.1718 C121.7217,84.7498 121.0047,85.2468 120.2887,85.7428 C119.7107,86.1278 119.0497,86.5968 118.3607,86.9268 C118.0307,87.0918 117.6727,87.2288 117.2857,87.2848 C116.9287,87.3678 116.5707,87.3678 116.1847,87.3128 C115.4407,87.0918 115.1387,86.3488 115.1387,85.6048 C115.1387,85.1358 115.3037,84.4188 115.4137,83.9238 L116.5707,78.5808 L116.9557,76.5978 L117.1207,75.8538 L114.1187,75.8538 Z" id="Fill-15" fill="#000000"></path>
                <g id="Group-19" transform="translate(129.000000, 73.363500)">
                    <mask id="mask-2" fill="white">
                        <use xlink:href="#path-1"></use>
                    </mask>
                    <g id="Clip-18"></g>
                    <path d="M5.9117,11.9112 C6.7107,12.3792 7.6197,12.6542 8.5557,12.6542 C10.6777,12.6542 11.4757,9.4592 11.9717,7.8892 C12.1367,7.3382 12.3027,6.7312 12.3847,6.1812 C12.4397,5.6582 12.5497,4.8312 12.5497,4.3352 C12.5497,3.9502 12.4677,2.9032 11.8887,2.8482 C11.7237,2.8212 11.5307,2.8762 11.3657,2.9032 C9.6307,3.6192 8.4737,5.1622 7.5647,6.7312 C6.8487,7.9722 6.6557,8.8522 6.2967,10.2032 L5.9117,11.9112 Z M2.3587,15.2712 L4.0387,7.7522 L4.5077,5.4102 C4.6177,4.8312 4.7007,4.2532 4.7277,3.7022 C4.7007,3.4272 4.5077,3.2892 4.2597,3.2892 C3.7907,3.2892 2.6337,4.1162 2.2487,4.4182 L1.8637,3.7852 C2.4687,3.2342 3.1297,2.7652 3.7907,2.3252 C4.6727,1.7462 6.1597,0.6172 7.2337,0.6172 C7.5367,0.6172 7.6747,0.6722 7.8117,0.9482 C8.1707,1.4442 7.8957,2.3252 7.7857,2.8762 L7.4547,4.2252 L6.9037,6.3732 C7.6747,5.2442 8.4457,4.0602 9.4647,3.0962 C9.9057,2.6832 10.4297,2.2972 10.9247,1.9392 C11.8337,1.3062 12.9917,0.6172 14.1197,0.6172 C15.5527,0.6172 15.7187,2.5732 15.7187,3.5922 C15.7187,5.3552 15.3047,6.9792 14.6437,8.6052 C14.2857,9.5412 13.8717,10.2572 13.1837,10.9462 C12.3847,11.8282 11.0347,12.5992 10.0157,13.2332 C9.1067,13.7832 8.1707,14.0042 7.0957,14.0042 C6.5727,14.0042 6.0767,13.9492 5.5817,13.8112 C5.4427,14.4172 5.2507,15.0782 5.0857,15.7122 L4.7547,17.3362 C4.5077,18.3562 4.2867,19.4022 4.2597,20.4212 C3.9287,20.4212 3.5707,20.5052 3.2397,20.5592 L2.0287,20.8072 L1.1737,21.0002 L0.8987,20.8072 C1.2297,19.7062 1.4767,18.5492 1.7807,17.4462 L2.3587,15.2712 Z" id="Fill-17" fill="#000000" mask="url(#mask-2)"></path>
                </g>
                <path d="M150.0308,80.8669 C150.3338,80.7579 150.6368,80.6749 150.9678,80.6179 C151.9308,80.3709 153.0058,79.9299 153.6938,79.1589 C154.2718,78.4709 154.7958,77.6449 154.7958,76.7079 C154.7958,75.9359 154.3548,75.3029 153.5288,75.3029 C151.5998,75.3029 150.7738,77.7549 150.4158,79.2689 L150.0308,80.8669 Z M156.5308,84.5309 C154.5198,85.7419 152.5378,87.3669 150.0578,87.3669 C147.7718,87.3669 146.6418,86.1559 146.6418,83.9239 C146.6418,82.9049 147.0558,81.1159 147.3318,80.1229 C147.8828,78.1399 148.4608,76.9829 150.2228,75.7989 C150.6648,75.4959 151.1048,75.2749 151.5728,75.0009 C151.9578,74.7789 152.3438,74.5859 152.7578,74.3939 C153.3358,74.1739 154.1348,73.9809 154.7678,73.9809 C156.2288,73.9809 157.3848,74.7789 157.3848,76.2939 C157.3848,78.3329 156.1458,79.4899 154.3828,80.2889 C153.5288,80.6749 152.6198,80.8939 151.7658,81.2249 C151.1878,81.4179 150.5268,81.4459 149.9198,81.5829 C149.8378,82.1889 149.7818,82.8229 149.7818,83.4009 C149.7818,84.7779 150.4718,85.6049 151.9038,85.6049 C153.1978,85.6049 155.1818,84.4749 156.2558,83.7589 L156.5308,84.5309 Z" id="Fill-20" fill="#000000"></path>
                <path d="M158.647,77.2039 C159.061,76.9009 159.446,76.5979 159.832,76.2669 C160.686,75.6059 161.484,75.0559 162.42,74.4769 C162.641,74.3389 162.944,74.1739 163.274,74.0909 C163.605,73.9809 163.936,73.9809 164.156,74.1739 C164.267,74.2559 164.349,74.3669 164.377,74.4769 C164.625,75.1099 164.432,75.8539 164.267,76.5149 L163.744,78.8019 L163.578,79.5179 L163.357,80.3429 L163.55,80.2329 C164.046,79.0759 164.651,77.9479 165.285,76.8459 C165.698,76.1009 166.25,75.2749 166.938,74.7249 C167.296,74.4209 167.654,74.2019 168.068,74.0909 C168.48,73.9809 168.949,73.9809 169.417,74.1449 C169.114,75.4409 168.866,76.6809 168.866,77.9199 L168.536,78.0849 C168.48,78.0299 168.397,78.0029 168.343,77.9479 C167.958,77.6719 167.626,77.5619 167.158,77.5619 C165.479,77.5619 164.708,79.4899 164.102,80.7579 C163.744,81.5279 163.633,81.9689 163.413,82.7399 L163.026,84.2829 L162.723,85.8519 L162.585,86.8439 C162.31,86.8719 162.063,86.8979 161.788,86.9269 C161.043,87.0369 160.3,87.0639 159.61,87.3679 L159.309,87.0369 C159.584,86.2099 159.832,85.3569 160.052,84.5029 L160.603,82.1059 L161.264,78.6079 C161.319,78.2229 161.43,77.7269 161.43,77.3409 C161.43,77.0109 161.374,76.7079 160.961,76.7079 C160.631,76.7079 159.309,77.6449 159.005,77.9199 L158.647,77.2039 Z" id="Fill-22" fill="#000000"></path>
                <path d="M169.8824,84.0623 L169.9924,83.0153 L170.8194,83.0153 L170.8744,84.3103 C171.5074,85.1913 173.1324,85.8803 174.2354,85.8803 C175.5574,85.8803 176.8234,85.3573 176.8234,83.8423 C176.8234,82.6853 175.9424,82.2163 174.9504,82.0233 L173.7384,81.7753 C172.8584,81.6103 172.0304,81.3903 171.3974,80.6743 C170.8744,80.1503 170.5984,79.4903 170.5984,78.7183 C170.5984,78.0853 170.8474,77.3693 171.1504,76.8453 C171.4524,76.3503 171.8654,76.0743 172.3344,75.7433 C172.9674,75.2753 174.4274,74.3113 175.1984,74.1453 C175.6674,74.0353 176.0254,73.9803 176.4934,73.9803 C177.5674,73.9803 178.6134,74.2013 179.5784,74.6423 C179.6884,74.7253 179.7984,74.7793 179.9084,74.8343 C179.8544,75.1663 179.7984,75.4963 179.7154,75.8263 C179.6054,76.5423 179.4134,77.2863 179.4404,78.0303 L178.6134,78.0303 L178.4484,76.7083 C177.6224,75.9923 176.5764,75.5233 175.4464,75.5233 C174.0974,75.5233 173.1604,76.2123 173.1604,77.5893 C173.1604,78.7463 174.3454,79.0763 175.2534,79.2423 L176.8784,79.6003 C177.6504,79.7373 178.2564,79.9853 178.8064,80.5643 C179.2204,80.9493 179.5784,81.8033 179.5784,82.4093 C179.5784,83.8963 178.8904,84.6133 177.8434,85.4943 C176.8784,86.3203 176.1634,86.7893 174.9234,87.1463 C174.4824,87.2853 173.6014,87.3673 173.1324,87.3673 C171.5354,87.3673 170.9854,86.9823 169.5244,86.6513 L169.4144,86.6243 L169.4974,86.3483 L169.6624,85.4393 L169.8824,84.0623 Z" id="Fill-24" fill="#000000"></path>
                <path d="M186.4864,77.6716 C185.9914,78.9666 185.6874,80.3996 185.5504,81.8036 C185.4954,82.2156 185.4404,82.5746 185.4404,83.0146 C185.4404,84.6676 185.9644,86.1276 187.9194,86.1276 C188.6354,86.1276 189.2964,85.6866 189.7924,85.1916 C190.2604,84.6676 190.4814,84.1446 190.7284,83.4836 C191.1694,82.2986 191.3904,81.1696 191.5554,79.9306 C191.6104,79.4066 191.6654,78.8556 191.6654,78.3606 C191.6654,77.5616 191.5834,76.8456 191.1414,76.1566 C190.7564,75.6056 190.1234,75.1926 189.4344,75.1926 C187.8374,75.1926 187.0104,76.3216 186.4864,77.6716 M182.2734,82.9326 C182.2734,81.9136 182.6034,80.4256 182.9334,79.4346 C183.3474,78.2226 183.6494,77.5066 184.5864,76.6246 C186.2394,75.0276 188.2784,73.9806 190.5914,73.9806 C193.4554,73.9806 194.8884,75.6056 194.8884,78.3606 C194.8884,80.3166 194.0894,83.2636 192.6574,84.6676 C191.0314,86.2656 188.7734,87.3676 186.4864,87.3676 C183.4024,87.3676 182.2734,85.8806 182.2734,82.9326" id="Fill-26" fill="#000000"></path>
                <path d="M196.7315,77.1482 C197.3095,76.6522 197.8875,76.2122 198.5205,75.7712 C198.9345,75.4682 199.6505,74.8902 200.3935,74.5032 C200.7795,74.2842 201.1375,74.1182 201.4955,74.0352 C201.6605,74.0082 201.8265,73.9812 201.9915,74.0082 C202.1285,74.0352 202.2675,74.0632 202.3775,74.1732 C202.6255,74.3662 202.6255,74.5322 202.6255,74.8072 C202.6255,75.5512 202.3215,76.6802 202.1845,77.4232 L201.3575,80.6182 L202.1575,79.2972 C203.1485,77.6712 205.7375,75.2482 207.5015,74.4492 C207.8025,74.3112 208.1335,74.1452 208.4925,74.0632 C208.6565,74.0082 208.8225,73.9812 208.9875,73.9812 C209.1805,74.0082 209.3465,74.0352 209.4835,74.1452 C209.8975,74.2842 210.0895,74.7252 210.0895,75.1372 C210.0895,75.6612 210.0625,75.8542 209.9525,76.3502 L209.4835,78.3882 L208.7125,81.2252 L208.5745,81.8032 L208.4365,82.3542 L208.2435,83.1802 C208.1615,83.5662 207.8025,84.7502 208.1335,84.9992 C208.5195,85.3842 210.1165,84.2002 210.5305,83.8142 L210.8055,84.5302 C209.2905,85.6322 207.9415,86.8162 206.2335,87.3392 C205.9575,87.3672 205.8195,87.3672 205.6825,87.3672 C205.3515,87.2852 205.1585,87.1742 205.0485,87.0922 C204.6905,86.6512 204.7465,86.4302 204.7465,85.9072 C204.7465,85.4112 204.9655,84.5852 205.0755,84.0622 L206.4815,78.7732 C206.5915,78.3612 206.9495,77.3132 206.6745,76.9552 C206.6465,76.8732 206.5915,76.8172 206.5085,76.7632 C205.3795,76.3222 203.6715,78.6352 203.0935,79.3522 C202.1845,80.5642 201.6885,81.6662 201.1925,83.0702 C201.0555,83.4562 200.9455,83.7872 200.8625,83.9512 C200.7245,84.4752 200.6145,84.9702 200.4765,85.4942 C200.3935,85.8522 200.3115,86.2102 200.2845,86.5682 C199.2925,86.5962 198.3005,86.8442 197.3365,87.0372 L197.0885,86.7062 C197.3925,85.8802 197.6395,85.0532 197.8875,84.2002 L198.1075,83.6212 L198.3275,82.8232 L198.8515,80.6742 L199.2095,78.8562 L199.3195,77.9742 C199.3475,77.6992 199.3475,77.4232 199.4295,77.1482 C199.4295,76.9282 199.3195,76.7352 199.0995,76.7082 C198.3275,76.8452 197.6945,77.3972 197.0885,77.8372 L196.7315,77.1482 Z" id="Fill-28" fill="#000000"></path>
                <path d="M222.0406,76.0188 C221.4626,75.7158 220.5806,75.4128 219.9196,75.4128 C219.2586,75.4128 218.5976,75.6608 218.1846,76.1848 C217.3576,77.4238 216.9726,78.9668 216.6146,80.3988 C216.3666,81.3628 215.9536,83.0978 215.9536,84.0618 C215.9536,84.3378 216.0086,84.6128 216.0906,84.8598 C216.1736,84.9708 216.2836,85.0818 216.4206,85.1358 C216.5326,85.1638 216.6686,85.1088 216.7796,85.0818 C219.1486,83.4838 221.4066,79.6268 221.9026,76.8458 L222.0406,76.0188 Z M225.1256,73.9538 L225.5666,74.2838 C225.5396,74.3938 225.4836,74.4768 225.4286,74.5598 L224.9876,76.1848 L223.4176,83.2078 C223.3076,83.7048 223.1426,84.2828 223.2526,84.7778 C223.2796,84.8888 223.3636,85.0538 223.4736,85.1088 C223.7756,85.1638 224.0516,84.9428 224.2996,84.8338 C224.7406,84.5028 225.2086,84.2278 225.6216,83.8418 L225.9236,84.6958 C225.2356,85.2468 224.5196,85.8518 223.7486,86.3488 C222.9776,86.8438 222.1506,87.3678 221.2146,87.3678 C221.0766,87.3678 220.9116,87.3388 220.7736,87.2848 C220.3876,86.9818 220.2776,86.4858 220.2776,86.0178 C220.2776,85.5498 220.3876,85.0538 220.4706,84.6128 L220.9936,82.4098 L221.1316,81.8038 L221.4346,80.6458 C220.1956,82.8778 217.1376,87.3678 214.3286,87.3678 C213.2546,87.3678 212.8686,86.1558 212.8686,85.2748 C212.8686,83.7588 213.0886,82.6018 213.4746,81.1978 C213.8046,80.0138 214.1636,78.7738 214.7966,77.7268 C214.9066,77.5338 215.0166,77.3408 215.1816,77.2038 C216.2296,76.3498 218.2116,74.6698 219.4516,74.2288 C220.1676,73.9538 220.3876,73.9808 221.1596,73.9808 C222.1506,73.9808 223.0046,74.3108 223.8866,74.6968 L225.1256,73.9538 Z" id="Fill-30" fill="#000000"></path>
                <path d="M229.8877,79.407 L230.8507,75.385 L231.5677,71.888 L231.7607,70.676 C231.8427,70.318 232.0627,69.628 231.8157,69.326 C231.5677,69.023 231.0727,69.051 230.7147,68.995 L229.6397,68.995 L229.7507,68.169 C231.6507,67.894 233.5517,67.563 235.3687,66.902 L235.6727,67.205 C235.3967,68.445 235.1217,69.684 234.8177,70.924 L232.3117,82.216 C232.1737,82.878 231.9807,83.814 231.9807,84.448 C231.9807,84.723 232.0357,85.053 232.3937,85.053 C232.6147,85.053 232.9177,84.86 233.1107,84.723 L233.4407,84.558 C233.8537,84.338 234.2667,84.09 234.5977,83.759 L234.9827,84.503 C234.2667,85.026 233.5777,85.577 232.8067,86.017 L231.6227,86.734 C231.0727,87.064 230.4097,87.367 229.7777,87.367 C228.8407,87.367 228.7307,86.376 228.7307,85.687 C228.7307,84.723 228.9507,83.814 229.1717,82.878 L229.8877,79.407 Z" id="Fill-32" fill="#000000"></path>
                <path d="M239.0533,79.407 L240.0173,75.385 L240.7333,71.888 L240.9263,70.676 C241.0093,70.318 241.2293,69.628 240.9823,69.326 C240.7333,69.023 240.2373,69.051 239.8793,68.995 L238.8053,68.995 L238.9153,68.169 C240.8163,67.894 242.7173,67.563 244.5343,66.902 L244.8373,67.205 C244.5613,68.445 244.2863,69.684 243.9833,70.924 L241.4763,82.216 C241.3383,82.878 241.1463,83.814 241.1463,84.448 C241.1463,84.723 241.2013,85.053 241.5593,85.053 C241.7793,85.053 242.0833,84.86 242.2763,84.723 L242.6063,84.558 C243.0203,84.338 243.4323,84.09 243.7633,83.759 L244.1483,84.503 C243.4323,85.026 242.7443,85.577 241.9723,86.017 L240.7883,86.734 C240.2373,87.064 239.5763,87.367 238.9423,87.367 C238.0063,87.367 237.8973,86.376 237.8973,85.687 C237.8973,84.723 238.1163,83.814 238.3373,82.878 L239.0533,79.407 Z" id="Fill-34" fill="#000000"></path>
                <g id="Group-38" transform="translate(245.000000, 73.363500)">
                    <mask id="mask-4" fill="white">
                        <use xlink:href="#path-3"></use>
                    </mask>
                    <g id="Clip-37"></g>
                    <path d="M0.6021,3.7017 C1.1801,3.2067 1.8141,2.7657 2.4471,2.3257 C2.8881,2.0217 3.4931,1.5537 4.1551,1.2227 C4.8161,0.8657 5.5041,0.6177 6.0281,0.8097 C6.1381,0.8927 6.2751,0.9477 6.3591,1.0857 C6.5511,1.3617 6.6891,1.9387 6.6891,2.2697 C6.6891,2.6287 6.6891,2.9587 6.6621,3.3167 L6.1381,7.8337 L6.0831,8.7157 L5.9731,9.7617 C5.9181,10.2847 5.8901,10.8087 6.0281,11.3047 C6.0831,11.4427 6.1931,11.6357 6.3591,11.6897 C7.9831,11.4427 9.7191,8.0547 10.2701,6.6777 C10.7381,5.4657 11.1511,4.2527 11.4261,3.0137 C11.5371,2.4907 11.6471,1.9667 11.7021,1.4717 C12.5001,1.3327 13.2991,1.1687 14.0991,0.9477 L14.7871,0.7817 L15.1181,1.0577 C14.9531,1.3617 14.8691,1.6917 14.7601,2.0217 L14.3191,3.3997 L14.0991,4.1427 L12.4181,10.2577 L11.8671,12.1587 C11.2061,14.2797 10.2151,16.3177 8.8101,18.0257 C7.7081,19.4017 5.5601,20.9997 3.7141,20.9997 C2.2271,20.9997 0.9321,20.3667 0.8221,18.7967 L0.8221,18.3827 L2.5301,17.3097 L2.9721,17.4747 C2.7231,18.7417 3.4381,19.8157 4.8161,19.7887 C6.8541,19.5397 7.6251,17.3637 8.1481,15.6837 L8.6441,14.1147 L9.9391,9.0457 C8.6441,10.8907 7.0751,12.9027 4.9261,13.8387 C4.4581,14.0037 4.1551,14.0037 3.7141,13.7567 C3.1361,13.2877 2.9721,12.3517 2.9721,11.6627 C2.9721,10.8647 3.0541,10.0647 3.1361,9.2657 L3.6591,4.2527 C3.6861,3.8127 3.7421,3.2607 3.1361,3.2607 C2.5301,3.2607 1.4281,4.0597 0.9601,4.4737 L0.6021,3.7017 Z" id="Fill-36" fill="#000000" mask="url(#mask-4)"></path>
                </g>
                <g id="Group-41" transform="translate(28.000000, 0.363500)">
                    <mask id="mask-6" fill="white">
                        <use xlink:href="#path-5"></use>
                    </mask>
                    <g id="Clip-40"></g>
                    <path d="M160.7339,35.9414 L142.8489,35.9374 C140.9179,38.6104 137.7839,40.3454 134.2339,40.3454 C128.3619,40.3454 123.6009,35.5854 123.6009,29.7124 C123.6009,23.8404 128.3619,19.0794 134.2339,19.0794 C137.8329,19.0794 141.0099,20.8684 142.9339,23.6054 L160.7339,23.6074 L160.7339,35.9414 Z M94.0789,33.7914 C94.5609,34.4454 94.9509,35.1864 95.2159,36.0024 C96.5409,40.0824 94.3089,44.4644 90.2289,45.7894 C86.9289,46.8624 83.4319,45.6054 81.5139,42.9264 C81.0409,43.5884 80.4569,44.1874 79.7629,44.6924 C76.2929,47.2134 71.4349,46.4444 68.9139,42.9734 C66.8739,40.1674 66.9889,36.4524 68.9429,33.8014 C68.1679,33.5554 67.4179,33.1844 66.7229,32.6804 C63.2529,30.1594 62.4839,25.3014 65.0049,21.8314 C67.0439,19.0244 70.6109,17.9854 73.7369,19.0254 C73.7319,18.2114 73.8519,17.3834 74.1169,16.5674 C75.4429,12.4874 79.8249,10.2544 83.9039,11.5804 C87.2049,12.6524 89.2949,15.7244 89.2729,19.0184 C90.0439,18.7614 90.8689,18.6204 91.7269,18.6204 C96.0169,18.6204 99.4939,22.0974 99.4939,26.3874 C99.4939,29.8574 97.2179,32.7944 94.0789,33.7914 L94.0789,33.7914 Z M29.1619,40.3454 C23.2889,40.3454 18.5279,35.5854 18.5279,29.7124 C18.5279,23.8404 23.2889,19.0794 29.1619,19.0794 C35.0339,19.0794 39.7949,23.8404 39.7949,29.7124 C39.7949,35.5854 35.0339,40.3454 29.1619,40.3454 L29.1619,40.3454 Z M179.5689,38.8024 L179.5689,1.9584 L160.7529,1.9584 L160.7539,17.8704 C156.2269,7.7144 146.0559,0.6364 134.2339,0.6364 C122.5469,0.6364 112.4739,7.5554 107.8719,17.5254 C103.2699,7.5554 93.1969,0.6364 81.5089,0.6364 C69.9799,0.6364 60.0209,7.3674 55.3359,17.1214 C50.6499,7.3674 40.6909,0.6364 29.1619,0.6364 C13.1289,0.6364 0.1319,13.6544 0.1319,29.7124 C0.1319,45.7704 13.1289,58.7894 29.1619,58.7894 C40.6909,58.7894 50.6499,52.0574 55.3359,42.3044 C60.0209,52.0574 69.9799,58.7894 81.5089,58.7894 C93.1969,58.7894 103.2699,51.8694 107.8719,41.8994 C112.4739,51.8694 122.5469,58.7894 134.2339,58.7894 C146.0459,58.7894 156.2149,51.7234 160.7489,41.5824 L160.7529,57.4794 L203.9859,57.4794 L203.9859,38.8024 L179.5689,38.8024 Z" id="Fill-39" fill="#E50012" mask="url(#mask-6)"></path>
                </g>
                <path d="M122.6768,25.7913 C122.4298,25.0323 121.6148,24.6163 120.8548,24.8633 C120.2108,25.0723 119.8168,25.6913 119.8608,26.3373 L112.7838,28.6363 C112.6788,28.4033 112.5498,28.1833 112.3998,27.9793 L114.8448,25.7773 C115.1018,25.9113 115.4088,25.9453 115.7058,25.8493 C116.2918,25.6583 116.6128,25.0283 116.4228,24.4423 C116.2318,23.8553 115.6018,23.5343 115.0148,23.7253 C114.4288,23.9153 114.1078,24.5463 114.2988,25.1323 C114.3108,25.1703 114.3258,25.2083 114.3428,25.2453 L111.9078,27.4373 C111.7198,27.2693 111.5168,27.1193 111.2968,26.9923 L112.6378,23.9783 C112.9268,23.9953 113.2208,23.9023 113.4528,23.6933 C113.9108,23.2803 113.9478,22.5753 113.5358,22.1163 C113.1228,21.6583 112.4168,21.6213 111.9588,22.0343 C111.5008,22.4473 111.4638,23.1523 111.8768,23.6113 C111.9038,23.6413 111.9328,23.6693 111.9628,23.6963 L110.6278,26.6933 C110.3918,26.6153 110.1458,26.5613 109.8908,26.5343 L109.8908,19.0623 C110.5038,18.8943 110.9548,18.3353 110.9548,17.6693 C110.9548,16.8713 110.3078,16.2243 109.5098,16.2243 C108.7108,16.2243 108.0638,16.8713 108.0638,17.6693 C108.0638,18.3473 108.5298,18.9133 109.1578,19.0703 L109.1578,26.5303 C108.9038,26.5553 108.6558,26.6073 108.4188,26.6833 L107.0768,23.6673 C107.2818,23.4653 107.4108,23.1833 107.4108,22.8723 C107.4108,22.2553 106.9108,21.7553 106.2938,21.7553 C105.6768,21.7553 105.1768,22.2553 105.1768,22.8723 C105.1768,23.4883 105.6768,23.9883 106.2938,23.9883 C106.3348,23.9883 106.3748,23.9853 106.4148,23.9813 L107.7488,26.9773 C107.5278,27.1013 107.3228,27.2493 107.1338,27.4163 L104.6828,25.2103 C104.7888,24.9413 104.7918,24.6323 104.6648,24.3483 C104.4138,23.7843 103.7538,23.5313 103.1908,23.7823 C102.6278,24.0323 102.3738,24.6923 102.6248,25.2553 C102.8758,25.8193 103.5358,26.0723 104.0988,25.8213 C104.1358,25.8053 104.1718,25.7873 104.2068,25.7663 L106.6368,27.9553 C106.4858,28.1573 106.3548,28.3753 106.2478,28.6083 L99.1588,26.3053 C99.1898,25.6703 98.7968,25.0683 98.1638,24.8623 C97.4038,24.6153 96.5888,25.0313 96.3418,25.7913 C96.0948,26.5503 96.5108,27.3653 97.2698,27.6123 C97.9138,27.8213 98.5968,27.5533 98.9408,27.0033 L106.0118,29.3023 C105.9558,29.5463 105.9238,29.8013 105.9208,30.0623 L102.6698,30.4043 C102.5398,30.1453 102.3118,29.9373 102.0158,29.8413 C101.4298,29.6503 100.7998,29.9713 100.6088,30.5583 C100.4188,31.1443 100.7398,31.7743 101.3258,31.9643 C101.9128,32.1553 102.5418,31.8333 102.7328,31.2483 C102.7448,31.2093 102.7558,31.1693 102.7638,31.1313 L105.9868,30.7923 C106.0368,31.0493 106.1138,31.2963 106.2148,31.5303 L103.3978,33.1573 C103.1748,32.9733 102.8808,32.8763 102.5708,32.9083 C101.9578,32.9733 101.5128,33.5223 101.5768,34.1363 C101.6418,34.7493 102.1918,35.1943 102.8038,35.1293 C103.4178,35.0653 103.8628,34.5153 103.7978,33.9023 C103.7938,33.8623 103.7868,33.8213 103.7788,33.7833 L106.5748,32.1683 C106.7248,32.3813 106.8978,32.5753 107.0898,32.7503 L102.7318,38.7493 C102.1368,38.5243 101.4428,38.7113 101.0518,39.2513 C100.5828,39.8963 100.7258,40.8003 101.3708,41.2703 C102.0168,41.7393 102.9218,41.5953 103.3898,40.9503 C103.7888,40.4023 103.7438,39.6693 103.3288,39.1743 L107.6768,33.1873 C107.8998,33.3193 108.1368,33.4303 108.3868,33.5123 L107.7148,36.6773 C107.4288,36.7213 107.1598,36.8733 106.9768,37.1243 C106.6148,37.6243 106.7248,38.3223 107.2238,38.6853 C107.7228,39.0473 108.4208,38.9373 108.7838,38.4373 C109.1458,37.9393 109.0348,37.2403 108.5368,36.8783 C108.5038,36.8543 108.4688,36.8333 108.4348,36.8123 L109.1028,33.6693 C109.2368,33.6853 109.3718,33.6933 109.5098,33.6933 C109.6358,33.6933 109.7618,33.6873 109.8858,33.6733 L110.5578,36.8353 C110.3148,36.9923 110.1308,37.2403 110.0658,37.5453 C109.9378,38.1483 110.3228,38.7413 110.9258,38.8693 C111.5298,38.9983 112.1218,38.6123 112.2498,38.0093 C112.3788,37.4063 111.9928,36.8133 111.3898,36.6853 C111.3498,36.6763 111.3098,36.6713 111.2708,36.6663 L110.6018,33.5233 C110.8528,33.4433 111.0908,33.3333 111.3148,33.2033 L115.6698,39.1973 C115.2728,39.6933 115.2358,40.4113 115.6278,40.9503 C116.0968,41.5953 117.0008,41.7393 117.6468,41.2703 C118.2928,40.8003 118.4358,39.8963 117.9668,39.2513 C117.5688,38.7033 116.8588,38.5193 116.2578,38.7613 L111.9058,32.7713 C112.0988,32.5973 112.2728,32.4043 112.4258,32.1923 L115.2398,33.8173 C115.1928,34.1023 115.2548,34.4053 115.4378,34.6583 C115.7998,35.1573 116.4978,35.2683 116.9968,34.9053 C117.4958,34.5423 117.6068,33.8443 117.2438,33.3453 C116.8818,32.8463 116.1838,32.7363 115.6848,33.0983 C115.6518,33.1233 115.6208,33.1483 115.5908,33.1743 L112.7898,31.5583 C112.8938,31.3243 112.9748,31.0793 113.0278,30.8223 L116.2688,31.1633 C116.3418,31.4423 116.5218,31.6943 116.7918,31.8503 C117.3258,32.1583 118.0088,31.9753 118.3168,31.4413 C118.6248,30.9073 118.4418,30.2243 117.9078,29.9163 C117.3738,29.6083 116.6908,29.7903 116.3828,30.3243 C116.3628,30.3603 116.3438,30.3963 116.3278,30.4333 L113.0988,30.0933 C113.0978,29.8323 113.0688,29.5773 113.0138,29.3313 L120.0948,27.0303 C120.4438,27.5623 121.1148,27.8183 121.7488,27.6123 C122.5078,27.3663 122.9238,26.5503 122.6768,25.7913" id="Fill-42" fill="#E50012"></path>
            </g>
        </g>
    </g>
</svg>
